<svg version="1.1" id="Layer_1" xmlns="http://www.w3.org/2000/svg" xmlns:xlink="http://www.w3.org/1999/xlink" x="0px" y="0px"
	 viewBox="0 0 136 135" style="enable-background:new 0 0 136 135;" xml:space="preserve">
<style type="text/css">
	.st0{fill:#FFFFFF;}
	.st1{fill:#F0B90B;}
</style>
<ellipse id="Ellipse_150" class="st0" cx="68" cy="67.5" rx="68" ry="67.5"/>
<g id="Group_1543" transform="translate(33 32)">
	<path id="Path_5067" class="st1" d="M13,26.1c7.2,0,13-5.8,13-13S20.2,0,13,0S0,5.8,0,13c0,0,0,0,0,0C0,20.2,5.8,26.1,13,26.1z
		 M20,21.5c-4,3.3-9.9,3.3-13.9,0c0-2,1.5-3.6,3.5-3.6c0,0,0,0,0.1,0h6.7C18.4,17.9,20,19.5,20,21.5C20,21.5,20,21.5,20,21.5z
		 M13,2.1c6,0,11,4.9,11,10.9c0,2.4-0.8,4.7-2.2,6.6c-0.8-2.3-2.9-3.9-5.4-3.9H9.7c-2.4,0-4.6,1.6-5.4,3.9C0.6,14.8,1.6,8,6.4,4.3
		C8.3,2.9,10.6,2.1,13,2.1z"/>
	<path id="Path_5068" class="st1" d="M57.8,44.7c-7.2,0-13,5.8-13,13s5.8,13,13,13s13-5.8,13-13l0,0C70.8,50.6,65,44.8,57.8,44.7z
		 M64.7,66.2c-4,3.3-9.9,3.3-13.9,0c0-2,1.5-3.6,3.5-3.6c0,0,0,0,0.1,0h6.7C63.1,62.6,64.7,64.2,64.7,66.2
		C64.7,66.2,64.7,66.2,64.7,66.2L64.7,66.2z M66.5,64.4c-0.8-2.3-2.9-3.9-5.4-3.9h-6.7c-2.4,0-4.6,1.6-5.4,3.9
		c-3.7-4.8-2.7-11.7,2.1-15.4c4.8-3.7,11.7-2.7,15.4,2.1C69.5,55.1,69.5,60.5,66.5,64.4L66.5,64.4z"/>
	<path id="Path_5069" class="st1" d="M16.6,12.6c2-2,2-5.2,0-7.2c0,0,0,0,0,0l0,0c-2-2-5.2-2-7.2,0s-2,5.2,0,7.2
		S14.6,14.6,16.6,12.6C16.6,12.6,16.6,12.6,16.6,12.6z M10.9,6.9c1.2-1.2,3.1-1.2,4.2,0l0,0c1.2,1.2,1.2,3.1,0,4.2
		c-1.2,1.2-3.1,1.2-4.2,0S9.7,8.1,10.9,6.9C10.9,6.9,10.9,6.9,10.9,6.9z"/>
	<path id="Path_5070" class="st1" d="M9.4,57.3c2,2,5.2,2,7.2,0.1c2-2,2-5.2,0.1-7.2c0,0-0.1-0.1-0.1-0.1l0,0c-2-2-5.2-2-7.2-0.1
		C7.4,52,7.4,55.2,9.4,57.3C9.4,57.3,9.4,57.3,9.4,57.3z M10.9,51.6c1.2-1.2,3.1-1.2,4.2,0s1.2,3.1,0,4.2c-1.2,1.2-3.1,1.2-4.2,0
		c0,0,0,0,0,0c-1.7,0-3-0.5-3-2.1C7.9,52.1,9.3,50.7,10.9,51.6L10.9,51.6z"/>
	<path id="Path_5071" class="st1" d="M54.2,5.4c-2,2-2,5.2,0,7.2s5.2,2,7.2,0s2-5.2,0-7.2c0,0,0,0,0,0l0,0
		C59.4,3.4,56.2,3.4,54.2,5.4L54.2,5.4z M59.9,11.1c-1.2,1.2-3.1,1.2-4.2,0s-1.2-3.1,0-4.2c1.2-1.2,3.1-1.2,4.2,0c0,0,0,0,0,0l0,0
		C61.1,8,61.1,9.9,59.9,11.1C59.9,11.1,59.9,11.1,59.9,11.1L59.9,11.1z"/>
	<path id="Path_5072" class="st1" d="M61.4,50.2c-2-2-5.2-2-7.2,0s-2,5.2,0,7.2c2,2,5.2,2,7.2,0C63.3,55.3,63.3,52.1,61.4,50.2z
		 M59.9,55.9c-1.2,1.2-3.1,1.2-4.2,0s-1.2-3.1,0-4.2c1.2-1.2,3.1-1.2,4.2,0c0,0,0,0,0,0C61.1,52.8,61.1,54.7,59.9,55.9
		C59.9,55.9,59.9,55.9,59.9,55.9L59.9,55.9z"/>
	<path id="Path_5073" class="st1" d="M41.9,14.1c0.6,0,1-0.5,1-1c0-0.6-0.5-1-1-1c0,0,0,0,0,0H28.9c-0.6,0-1,0.5-1,1
		c0,0.6,0.5,1,1,1c0,0,0,0,0,0H41.9z"/>
	<path id="Path_5074" class="st1" d="M28.9,56.7c-0.6,0-1,0.5-1,1c0,0.6,0.5,1,1,1h13.1c0.6,0,1-0.5,1-1c0-0.6-0.5-1-1-1H28.9z"/>
	<path id="Path_5075" class="st1" d="M14.1,41.9V28.9c0-0.6-0.5-1-1-1c-0.6,0-1,0.5-1,1v13.1c0,0.6,0.5,1,1,1
		C13.6,43,14.1,42.5,14.1,41.9C14.1,41.9,14.1,41.9,14.1,41.9z"/>
	<path id="Path_5076" class="st1" d="M58.8,41.9V28.9c0-0.6-0.5-1-1-1c-0.6,0-1,0.5-1,1v13.1c0,0.6,0.5,1,1,1
		C58.4,43,58.8,42.5,58.8,41.9z"/>
	<path id="Path_5077" class="st1" d="M68.5,10.9c0.1,0.6,0.7,0.9,1.2,0.8c0.6-0.1,0.9-0.7,0.8-1.2l0,0C69.2,3.5,62.3-1.1,55.3,0.2
		S43.6,8.5,45,15.5c1.4,7.1,8.2,11.7,15.3,10.3c5.1-1,9.1-5,10.2-10c0.1-0.6-0.2-1.1-0.8-1.2c-0.6-0.1-1.1,0.2-1.2,0.8
		c-0.3,1.6-1,3-2,4.3c-0.8-2.3-2.9-3.9-5.4-3.9h-6.7c-2.4,0-4.6,1.6-5.4,3.9C45.4,14.8,46.3,8,51.2,4.3C56,0.6,62.9,1.6,66.5,6.4
		C67.5,7.7,68.2,9.3,68.5,10.9L68.5,10.9z M54.4,17.9h6.7c2,0,3.6,1.6,3.6,3.6v0.1c-4,3.3-9.9,3.3-13.9,0
		C50.8,19.5,52.4,17.9,54.4,17.9C54.4,17.9,54.4,17.9,54.4,17.9L54.4,17.9z"/>
	<path id="Path_5078" class="st1" d="M13,70.8c7.2,0,13-5.8,13-13c0-6.2-4.3-11.5-10.4-12.8c-0.6-0.1-1.1,0.2-1.2,0.8
		s0.2,1.1,0.8,1.2c5.9,1.2,9.7,7,8.5,12.9c-0.3,1.6-1,3.1-2,4.4c-0.8-2.3-2.9-3.9-5.4-3.9H9.7c-2.4,0-4.6,1.6-5.4,3.9
		c-3.7-4.8-2.7-11.7,2.1-15.3c1.3-1,2.8-1.7,4.4-2c0.6-0.1,0.9-0.7,0.8-1.2S11,44.9,10.4,45c-7,1.4-11.6,8.3-10.1,15.4
		C1.5,66.5,6.8,70.8,13,70.8L13,70.8z M9.7,62.6h6.7c2,0,3.6,1.6,3.6,3.6c0,0,0,0,0,0.1c-4,3.3-9.9,3.3-13.9,0
		C6.1,64.3,7.6,62.6,9.7,62.6C9.6,62.6,9.6,62.6,9.7,62.6L9.7,62.6z"/>
	<path id="Path_5079" class="st1" d="M36.3,22.5C29.5,22.5,24,28,24,34.8s5.5,12.3,12.3,12.3s12.3-5.5,12.3-12.3l0,0
		C48.5,28,43,22.5,36.3,22.5z M36.3,45.2c-5.7,0-10.4-4.6-10.4-10.4s4.6-10.4,10.4-10.4c5.7,0,10.4,4.6,10.4,10.4c0,0,0,0,0,0
		C46.6,40.6,42,45.2,36.3,45.2z"/>
	<path id="Path_5080" class="st1" d="M41.7,30.9l-7.3,7.3L31,34.9c-0.4-0.4-1-0.4-1.3,0c-0.4,0.4-0.4,1,0,1.3l4,4
		c0.4,0.4,1,0.4,1.3,0l8-8c0.4-0.4,0.4-1,0-1.3C42.7,30.5,42.1,30.5,41.7,30.9z"/>
</g>
</svg>
