<?xml version="1.0" encoding="utf-8"?>
<!-- Generator: Adobe Illustrator 24.2.3, SVG Export Plug-In . SVG Version: 6.00 Build 0)  -->
<svg version="1.1" id="Layer_1" xmlns="http://www.w3.org/2000/svg" xmlns:xlink="http://www.w3.org/1999/xlink" x="0px" y="0px"
	 viewBox="0 0 136 135" style="enable-background:new 0 0 136 135;" xml:space="preserve">
<style type="text/css">
	.st0{fill:#FFFFFF;}
	.st1{fill:#F0B90B;}
</style>
<ellipse id="Ellipse_152" class="st0" cx="68" cy="67.5" rx="68" ry="67.5"/>
<g id="Group_1578" transform="translate(31 30)">
	<path id="Path_5106" class="st1" d="M68.3,11.2h-1.2V3.7c0-2.1-1.7-3.7-3.7-3.7H46c-2.1,0-3.7,1.7-3.7,3.7V5h-9.9V3.7
		c0-2.1-1.7-3.7-3.7-3.7H11.2C9.1,0,7.4,1.7,7.4,3.7v7.5H6.2C2.8,11.2,0,14,0,17.4v41c0,3.4,2.8,6.2,6.2,6.2h19.9v2.5h-8.7
		c-0.7,0-1.2,0.6-1.2,1.2c0,0,0,0,0,0v5c0,0.7,0.6,1.2,1.2,1.2c0,0,0,0,0,0h39.8c0.7,0,1.2-0.6,1.2-1.2v-5c0-0.7-0.6-1.2-1.2-1.2
		h-8.7v-2.5h19.9c3.4,0,6.2-2.8,6.2-6.2v-41C74.5,14,71.8,11.2,68.3,11.2z M44.7,3.7c0-0.7,0.6-1.2,1.2-1.2h17.4
		c0.7,0,1.2,0.6,1.2,1.2v22.4c0,0.7-0.6,1.2-1.2,1.2h-3.7h0c-0.2,0-0.3,0-0.5,0.1c-0.1,0.1-0.3,0.2-0.4,0.3
		c-0.1,0.1-0.2,0.2-0.3,0.4l-3.8,9l-3.7-8.8v-3.5h8.9c1.3,0,2.3-1,2.3-2.3v-1.1c0-2.4-1.1-4.7-3.1-6.1c2.2-2.5,2.1-6.2-0.2-8.5
		c-2.3-2.3-6.1-2.4-8.5-0.2c-0.7-1-1.8-1.6-3.1-1.6h-2.5L44.7,3.7z M52,16.9c1.6,0.7,3.4,0.7,4.9,0c1.7,0.9,2.7,2.7,2.7,4.6v0.9
		h-8.7v-4.8C51.3,17.3,51.6,17.1,52,16.9L52,16.9z M50.9,12.5V9.8c0.6-1.5,2.1-2.5,3.7-2.4c1.6,0.1,3,1.3,3.4,2.8
		c0.4,1.6-0.3,3.2-1.7,4.1l0,0c0,0-0.1,0-0.1,0c-1.1,0.6-2.5,0.6-3.6,0c0,0-0.1,0-0.1-0.1C51.8,13.9,51.2,13.3,50.9,12.5L50.9,12.5z
		 M47.2,7.5c0.7,0,1.2,0.6,1.2,1.2V36c0,0.7-0.6,1.2-1.2,1.2h-5c-0.2,0-0.3,0-0.5,0.1c-0.1,0.1-0.3,0.2-0.4,0.3
		c-0.1,0.1-0.2,0.2-0.3,0.4l-3.8,9l-3.8-9c-0.1-0.2-0.2-0.3-0.3-0.4c-0.1-0.1-0.3-0.2-0.4-0.3c-0.2-0.1-0.3-0.1-0.5-0.1h-5
		c-0.7,0-1.2-0.6-1.2-1.2V8.7c0-0.7,0.6-1.2,1.2-1.2L47.2,7.5z M9.9,3.7c0-0.7,0.6-1.2,1.2-1.2h17.4c0.7,0,1.2,0.6,1.2,1.2V5h-2.5
		c-1.2,0-2.4,0.6-3.1,1.6c-2.4-2.2-6.2-2.1-8.5,0.2c-2.3,2.3-2.4,6.1-0.2,8.5c-1.9,1.4-3.1,3.7-3.1,6.1v1.1c0,1.3,1,2.3,2.3,2.3h8.9
		v3.5l-3.7,8.8l-3.8-9c-0.1-0.2-0.2-0.3-0.3-0.4c-0.1,0-0.1-0.1-0.2-0.1c-0.1-0.1-0.1-0.1-0.2-0.1c-0.2-0.1-0.3-0.1-0.5-0.1h-3.7
		c-0.7,0-1.2-0.6-1.2-1.2L9.9,3.7z M22.1,14.4C22,14.4,22,14.4,22.1,14.4c-1.2,0.7-2.6,0.7-3.7,0.1c0,0-0.1,0-0.1-0.1
		c-1.4-0.8-2.1-2.5-1.7-4.1c0.4-1.6,1.8-2.7,3.4-2.8c1.6-0.1,3.1,0.9,3.7,2.4v2.7C23.3,13.3,22.8,13.9,22.1,14.4L22.1,14.4z
		 M23.6,17.6v4.8h-8.7v-0.9c0-1.9,1.1-3.7,2.7-4.6c1.6,0.7,3.4,0.7,4.9,0C23,17.1,23.3,17.3,23.6,17.6L23.6,17.6z M55.9,69.6v2.5
		H18.6v-2.5H55.9z M28.6,67.1v-2.5H46v2.5H28.6z M72.1,58.4c0,2.1-1.7,3.7-3.7,3.7H6.2c-2.1,0-3.7-1.7-3.7-3.7v-3.7h69.6L72.1,58.4
		L72.1,58.4z M72.1,52.2H2.5V17.4c0-2.1,1.7-3.7,3.7-3.7h1.2v12.4c0,2.1,1.7,3.7,3.7,3.7h2.9l3.5,8.4c0.3,0.9,1.2,1.6,2.2,1.6
		c1,0,1.9-0.6,2.3-1.6l1.5-3.5V36c0,2.1,1.7,3.7,3.7,3.7h4.1l3.5,8.4c0.3,0.9,1.2,1.6,2.2,1.6c1,0,1.9-0.6,2.3-1.6l3.5-8.4h4.1
		c2.1,0,3.7-1.7,3.7-3.7v-1.3l1.5,3.5c0.3,0.9,1.2,1.6,2.2,1.6c1,0,1.9-0.6,2.3-1.6l3.5-8.4h2.9c2.1,0,3.7-1.7,3.7-3.7V13.7h1.2
		c2.1,0,3.7,1.7,3.7,3.7L72.1,52.2z"/>
	<path id="Path_5107" class="st1" d="M31.1,33.5h12.4c1.4,0,2.5-1.1,2.5-2.5v-1.2c0-2.8-1.3-5.4-3.6-7c2.2-2.1,2.9-5.3,1.8-8.2
		c-1.1-2.8-3.9-4.7-6.9-4.7c-3.1,0-5.8,1.9-6.9,4.7c-1.1,2.8-0.4,6.1,1.8,8.2c-2.2,1.6-3.6,4.2-3.6,7v1.2
		C28.6,32.4,29.7,33.5,31.1,33.5C31.1,33.5,31.1,33.5,31.1,33.5z M32.4,16.2c0.5-2.2,2.5-3.8,4.8-3.8c2.3,0,4.3,1.6,4.8,3.8
		c0.5,2.2-0.5,4.5-2.6,5.6c-1.4,0.7-3.1,0.7-4.5,0C33,20.8,31.9,18.5,32.4,16.2L32.4,16.2z M31.1,29.8c0-2.3,1.3-4.5,3.4-5.5
		c1.8,0.7,3.8,0.7,5.6,0c2.1,1,3.4,3.2,3.4,5.5v1.2H31.1L31.1,29.8z"/>
	<path id="Path_5108" class="st1" d="M19.9,41c-2.7,0-5,2.2-5,5c0,2.7,2.2,5,5,5c2.7,0,5-2.2,5-5c0,0,0,0,0,0
		C24.8,43.2,22.6,41,19.9,41z M19.9,48.5c-1.4,0-2.5-1.1-2.5-2.5s1.1-2.5,2.5-2.5s2.5,1.1,2.5,2.5c0,0,0,0,0,0
		C22.4,47.3,21.3,48.5,19.9,48.5z"/>
	<path id="Path_5109" class="st1" d="M54.7,41c-2.7,0-5,2.2-5,5c0,2.7,2.2,5,5,5c2.7,0,5-2.2,5-5c0,0,0,0,0,0
		C59.6,43.2,57.4,41,54.7,41z M54.7,48.5c-1.4,0-2.5-1.1-2.5-2.5s1.1-2.5,2.5-2.5s2.5,1.1,2.5,2.5c0,0,0,0,0,0
		C57.2,47.3,56,48.5,54.7,48.5z"/>
</g>
</svg>
