<?xml version="1.0" encoding="utf-8"?>
<!-- Generator: Adobe Illustrator 24.2.3, SVG Export Plug-In . SVG Version: 6.00 Build 0)  -->
<svg version="1.1" id="Layer_1" xmlns="http://www.w3.org/2000/svg" xmlns:xlink="http://www.w3.org/1999/xlink" x="0px" y="0px"
	 viewBox="0 0 136 135" style="enable-background:new 0 0 136 135;" xml:space="preserve">
<style type="text/css">
	.st0{fill:#FFFFFF;}
	.st1{fill:#F0B90B;}
</style>
<ellipse id="Ellipse_154" class="st0" cx="68" cy="67.5" rx="68" ry="67.5"/>
<g id="Group_1607" transform="translate(36 36)">
	<g id="Group_1590" transform="translate(0 27.546)">
		<g id="Group_1589">
			<path id="Path_5116" class="st1" d="M22.5,17.9c-0.1,0-0.2,0-0.3,0c1.4-1.5,2.2-3.4,2.2-5.5V5.9c0-0.1,0-0.1,0-0.2
				c0-0.1,0-0.2,0-0.4V1.2c0-0.7-0.6-1.2-1.2-1.2h-8.3c-3.5,0-6.3,2.8-6.4,6.4v6.1c0,2,0.8,4,2.2,5.5c-0.1,0-0.2,0-0.3,0
				C4.6,18.5,0,23.5,0,29.4v5.3C0,35.4,0.6,36,1.2,36h30.5c0.7,0,1.2-0.6,1.2-1.2v-5.3C33,23.5,28.5,18.5,22.5,17.9z M11,7.9V6.4
				c0-2.1,1.7-3.9,3.9-3.9H22v2.9C22,6.8,20.8,8,19.3,8L11,7.9L11,7.9z M11,10.5h8.3c0.9,0,1.8-0.3,2.6-0.7v2.7c0,3-2.5,5.5-5.5,5.5
				c-3,0-5.5-2.5-5.5-5.5L11,10.5z M19.2,20.4l-2.7,2.7l-2.7-2.7H19.2z M30.5,33.5h-28V31h5.1c0.7,0,1.2-0.6,1.2-1.2
				s-0.6-1.2-1.2-1.2H2.5c0.4-4.2,3.7-7.5,7.8-8.1l5.3,5.3c0.2,0.2,0.5,0.4,0.9,0.4c0.3,0,0.6-0.1,0.9-0.4l5.3-5.3
				c4.5,0.6,7.9,4.4,7.9,9L30.5,33.5z"/>
		</g>
	</g>
	<g id="Group_1592" transform="translate(30.494 0)">
		<g id="Group_1591">
			<path id="Path_5117" class="st1" d="M22.5,17.9c-0.1,0-0.2,0-0.3,0c1.4-1.5,2.2-3.4,2.2-5.5V5.9c0-0.1,0-0.1,0-0.2
				c0-0.1,0-0.2,0-0.4V1.2c0-0.7-0.6-1.2-1.2-1.2h-8.3c-3.5,0-6.3,2.8-6.4,6.4v6.1c0,2,0.8,4,2.2,5.5c-0.1,0-0.2,0-0.3,0
				C4.6,18.5,0,23.5,0,29.4v5.3C0,35.4,0.6,36,1.2,36h10c0.7,0,1.2-0.6,1.2-1.2s-0.6-1.2-1.2-1.2H2.5v-4.1c0-4.5,3.4-8.4,7.9-9
				l5.3,5.3c0.2,0.2,0.5,0.4,0.9,0.4c0.3,0,0.6-0.1,0.9-0.4l5.3-5.3c4.5,0.6,7.9,4.4,7.9,9v4.1h-9.1c-0.7,0-1.2,0.6-1.2,1.2
				s0.6,1.2,1.2,1.2h10.4c0.7,0,1.2-0.6,1.2-1.2v-5.3C33,23.5,28.5,18.5,22.5,17.9z M16.5,23.1l-2.7-2.7h5.4L16.5,23.1z M22,12.4
				c0,3-2.5,5.5-5.5,5.5c-3,0-5.5-2.5-5.5-5.5v-1.9h8.3c0.9,0,1.8-0.3,2.6-0.7L22,12.4z M22,5.4C22,6.8,20.8,8,19.3,8H11V6.4
				c0-2.1,1.7-3.9,3.9-3.9H22L22,5.4L22,5.4z"/>
		</g>
	</g>
	<g id="Group_1594" transform="translate(45.758 33.475)">
		<g id="Group_1593">
			<path id="Path_5118" class="st1" d="M2.1,0.4C1.9,0.1,1.6,0,1.2,0C0.9,0,0.6,0.1,0.4,0.4C0.1,0.6,0,0.9,0,1.2
				c0,0.3,0.1,0.6,0.4,0.9c0.2,0.2,0.5,0.4,0.9,0.4c0.3,0,0.6-0.1,0.9-0.4c0.2-0.2,0.4-0.5,0.4-0.9C2.5,0.9,2.3,0.6,2.1,0.4z"/>
		</g>
	</g>
	<g id="Group_1596" transform="translate(0 0)">
		<g id="Group_1595">
			<path id="Path_5119" class="st1" d="M33.2,17.4L28,12.2v-6C28,2.8,25.2,0,21.8,0H6.2C2.8,0,0,2.8,0,6.2v10.9
				c0,3.4,2.8,6.2,6.2,6.2h15.6c2.5,0,4.8-1.5,5.7-3.8h4.8c0.5,0,1-0.3,1.1-0.8C33.6,18.2,33.5,17.7,33.2,17.4z M26.6,17
				c-0.6,0-1.1,0.4-1.2,1c-0.4,1.7-1.9,2.9-3.6,2.9H6.2c-2.1,0-3.7-1.7-3.7-3.7V6.2c0-2.1,1.7-3.7,3.7-3.7h15.6
				c2.1,0,3.7,1.7,3.7,3.7v6.5c0,0.3,0.1,0.6,0.4,0.9l3.4,3.4L26.6,17z"/>
		</g>
	</g>
	<g id="Group_1598" transform="translate(29.973 40.184)">
		<g id="Group_1597">
			<path id="Path_5120" class="st1" d="M27.3,0H11.8C9.2,0,7,1.5,6,3.8H1.2c-0.5,0-1,0.3-1.1,0.8C-0.1,5.1,0,5.6,0.4,6l5.2,5.2v6
				c0,3.4,2.8,6.2,6.2,6.2h15.6c3.4,0,6.2-2.8,6.2-6.2V6.2C33.5,2.8,30.7,0,27.3,0z M31,17.1c0,2.1-1.7,3.7-3.7,3.7H11.8
				c-2.1,0-3.7-1.7-3.7-3.7v-6.5c0-0.3-0.1-0.6-0.4-0.9L4.2,6.3h2.7c0.6,0,1.1-0.4,1.2-1c0.4-1.7,1.9-2.9,3.6-2.9h15.6
				c2.1,0,3.7,1.7,3.7,3.7L31,17.1z"/>
		</g>
	</g>
	<g id="Group_1600" transform="translate(46.385 48.179)">
		<g id="Group_1599">
			<path id="Path_5121" class="st1" d="M8.7,0.4c-0.5-0.5-1.3-0.5-1.8,0c0,0,0,0,0,0L3.6,3.7L2.1,2.1c-0.5-0.5-1.3-0.5-1.8,0
				c-0.5,0.5-0.5,1.3,0,1.8l2.4,2.4C3,6.5,3.3,6.7,3.6,6.7c0.3,0,0.6-0.1,0.9-0.4l4.2-4.2C9.2,1.6,9.2,0.9,8.7,0.4
				C8.7,0.4,8.7,0.4,8.7,0.4z"/>
		</g>
	</g>
	<g id="Group_1602" transform="translate(11.038 4.221)">
		<g id="Group_1601">
			<path id="Path_5122" class="st1" d="M8.6,4c-0.2-2.1-1.9-3.8-4-4C3.4-0.1,2.2,0.3,1.4,1.2C0.5,2,0,3.1,0,4.3C0,5,0.6,5.5,1.2,5.5
				S2.5,5,2.5,4.3c0-0.5,0.2-1,0.6-1.3c0.4-0.3,0.9-0.5,1.4-0.5c0.9,0.1,1.6,0.8,1.7,1.7c0.1,0.9-0.5,1.7-1.4,1.9
				c-1,0.2-1.6,1.1-1.6,2v0.7c0,0.7,0.6,1.2,1.2,1.2s1.2-0.6,1.2-1.2V8.4C7.5,7.8,8.7,6,8.6,4z"/>
		</g>
	</g>
	<g id="Group_1604" transform="translate(14.098 16.507)">
		<g id="Group_1603">
			<path id="Path_5123" class="st1" d="M2.1,0.4C1.9,0.1,1.6,0,1.2,0C0.9,0,0.6,0.1,0.4,0.4C0.1,0.6,0,0.9,0,1.2
				c0,0.3,0.1,0.6,0.4,0.9c0.2,0.2,0.5,0.4,0.9,0.4c0.3,0,0.6-0.1,0.9-0.4c0.2-0.2,0.4-0.5,0.4-0.9C2.5,0.9,2.3,0.6,2.1,0.4z"/>
		</g>
	</g>
	<g id="Group_1606" transform="translate(11.348 56.059)">
		<g id="Group_1605">
			<path id="Path_5124" class="st1" d="M2.1,0.4C1.9,0.1,1.6,0,1.2,0C0.9,0,0.6,0.1,0.4,0.4C0.1,0.6,0,0.9,0,1.2
				c0,0.3,0.1,0.6,0.4,0.9c0.2,0.2,0.5,0.4,0.9,0.4c0.3,0,0.6-0.1,0.9-0.4c0.2-0.2,0.4-0.5,0.4-0.9C2.5,0.9,2.3,0.6,2.1,0.4z"/>
		</g>
	</g>
</g>
</svg>
